{
  "accessors": [
    {
      "bufferView": 1,
      "componentType": 5126,
      "count": 65532,
      "max": [
        3.0652298927307129,
        3.0164999961853027,
        15.632369995117188
      ],
      "min": [
        -3.0652298927307129,
        -3.0164999961853027,
        -0.02718999981880188
      ],
      "type": "VEC3"
    },
    {
      "bufferView": 1,
      "byteOffset": 786384,
      "componentType": 5126,
      "count": 65532,
      "max": [
        1,
        1,
        1
      ],
      "min": [
        -1,
        -1,
        -1
      ],
      "type": "VEC3"
    },
    {
      "bufferView": 0,
      "componentType": 5125,
      "count": 256011,
      "max": [
        65531
      ],
      "min": [
        0
      ],
      "type": "SCALAR"
    },
    {
      "bufferView": 1,
      "byteOffset": 1572768,
      "componentType": 5126,
      "count": 65532,
      "max": [
        3.0652298927307129,
        2.0651400089263916,
        15.264969825744629
      ],
      "min": [
        -3.0652298927307129,
        -2.9755599498748779,
        -0.02718999981880188
      ],
      "type": "VEC3"
    },
    {
      "bufferView": 1,
      "byteOffset": 2359152,
      "componentType": 5126,
      "count": 65532,
      "max": [
        1,
        1,
        1
      ],
      "min": [
        -1,
        -1,
        -1
      ],
      "type": "VEC3"
    },
    {
      "bufferView": 0,
      "byteOffset": 1024044,
      "componentType": 5125,
      "count": 227391,
      "max": [
        65531
      ],
      "min": [
        0
      ],
      "type": "SCALAR"
    },
    {
      "bufferView": 1,
      "byteOffset": 3145536,
      "componentType": 5126,
      "count": 65532,
      "max": [
        2.9969499111175537,
        2.9853401184082031,
        14.947250366210938
      ],
      "min": [
        -2.9961800575256348,
        -2.9853401184082031,
        -0.0027499999850988388
      ],
      "type": "VEC3"
    },
    {
      "bufferView": 1,
      "byteOffset": 3931920,
      "componentType": 5126,
      "count": 65532,
      "max": [
        1,
        1,
        1
      ],
      "min": [
        -1,
        -1,
        -1
      ],
      "type": "VEC3"
    },
    {
      "bufferView": 0,
      "byteOffset": 1933608,
      "componentType": 5125,
      "count": 195414,
      "max": [
        65531
      ],
      "min": [
        0
      ],
      "type": "SCALAR"
    },
    {
      "bufferView": 1,
      "byteOffset": 4718304,
      "componentType": 5126,
      "count": 65532,
      "max": [
        3.0652298927307129,
        3.0164999961853027,
        15.630240440368652
      ],
      "min": [
        -3.0652298927307129,
        -3.0164999961853027,
        -0.02718999981880188
      ],
      "type": "VEC3"
    },
    {
      "bufferView": 1,
      "byteOffset": 5504688,
      "componentType": 5126,
      "count": 65532,
      "max": [
        1,
        1,
        1
      ],
      "min": [
        -1,
        -1,
        -1
      ],
      "type": "VEC3"
    },
    {
      "bufferView": 0,
      "byteOffset": 2715264,
      "componentType": 5125,
      "count": 153702,
      "max": [
        65531
      ],
      "min": [
        0
      ],
      "type": "SCALAR"
    },
    {
      "bufferView": 1,
      "byteOffset": 6291072,
      "componentType": 5126,
      "count": 65533,
      "max": [
        2.9853401184082031,
        2.1545100212097168,
        14.947250366210938
      ],
      "min": [
        -2.1545000076293945,
        -2.9853401184082031,
        -0.0027499999850988388
      ],
      "type": "VEC3"
    },
    {
      "bufferView": 1,
      "byteOffset": 7077468,
      "componentType": 5126,
      "count": 65533,
      "max": [
        1,
        1,
        1
      ],
      "min": [
        -1,
        -1,
        -1
      ],
      "type": "VEC3"
    },
    {
      "bufferView": 0,
      "byteOffset": 3330072,
      "componentType": 5125,
      "count": 139419,
      "max": [
        65532
      ],
      "min": [
        0
      ],
      "type": "SCALAR"
    },
    {
      "bufferView": 1,
      "byteOffset": 7863864,
      "componentType": 5126,
      "count": 65532,
      "max": [
        2.1545000076293945,
        2.9853401184082031,
        14.732439994812012
      ],
      "min": [
        -2.9853401184082031,
        -2.1545100212097168,
        -0.0027499999850988388
      ],
      "type": "VEC3"
    },
    {
      "bufferView": 1,
      "byteOffset": 8650248,
      "componentType": 5126,
      "count": 65532,
      "max": [
        1,
        1,
        1
      ],
      "min": [
        -1,
        -1,
        -1
      ],
      "type": "VEC3"
    },
    {
      "bufferView": 0,
      "byteOffset": 3887748,
      "componentType": 5125,
      "count": 142854,
      "max": [
        65531
      ],
      "min": [
        0
      ],
      "type": "SCALAR"
    },
    {
      "bufferView": 1,
      "byteOffset": 9436632,
      "componentType": 5126,
      "count": 65533,
      "max": [
        2.1265699863433838,
        2.1265699863433838,
        15.443790435791016
      ],
      "min": [
        -2.1265699863433838,
        -2.1265699863433838,
        1.6867300271987915
      ],
      "type": "VEC3"
    },
    {
      "bufferView": 1,
      "byteOffset": 10223028,
      "componentType": 5126,
      "count": 65533,
      "max": [
        1,
        1,
        1
      ],
      "min": [
        -1,
        -1,
        -1
      ],
      "type": "VEC3"
    },
    {
      "bufferView": 0,
      "byteOffset": 4459164,
      "componentType": 5125,
      "count": 162966,
      "max": [
        65532
      ],
      "min": [
        0
      ],
      "type": "SCALAR"
    },
    {
      "bufferView": 1,
      "byteOffset": 11009424,
      "componentType": 5126,
      "count": 40932,
      "max": [
        2.1265699863433838,
        2.1265699863433838,
        15.628060340881348
      ],
      "min": [
        -2.1265699863433838,
        -2.1265699863433838,
        1.6867300271987915
      ],
      "type": "VEC3"
    },
    {
      "bufferView": 1,
      "byteOffset": 11500608,
      "componentType": 5126,
      "count": 40932,
      "max": [
        1,
        1,
        1
      ],
      "min": [
        -1,
        -1,
        -1
      ],
      "type": "VEC3"
    },
    {
      "bufferView": 0,
      "byteOffset": 5111028,
      "componentType": 5125,
      "count": 71322,
      "max": [
        40931
      ],
      "min": [
        0
      ],
      "type": "SCALAR"
    },
    {
      "bufferView": 1,
      "byteOffset": 11991792,
      "componentType": 5126,
      "count": 1580,
      "max": [
        3.3619399070739746,
        3.3113899230957031,
        4.905980110168457
      ],
      "min": [
        -3.3619399070739746,
        -3.3113899230957031,
        -0.2953999936580658
      ],
      "type": "VEC3"
    },
    {
      "bufferView": 1,
      "byteOffset": 12010752,
      "componentType": 5126,
      "count": 1580,
      "max": [
        1,
        1,
        0.99821674823760986
      ],
      "min": [
        -1,
        -1,
        -1
      ],
      "type": "VEC3"
    },
    {
      "bufferView": 0,
      "byteOffset": 5396316,
      "componentType": 5125,
      "count": 3600,
      "max": [
        1579
      ],
      "min": [
        0
      ],
      "type": "SCALAR"
    },
    {
      "bufferView": 1,
      "byteOffset": 12029712,
      "componentType": 5126,
      "count": 5330,
      "max": [
        1.9968999624252319,
        1.9978799819946289,
        14.164950370788574
      ],
      "min": [
        -1.9681099653244019,
        -1.9856599569320679,
        2.561769962310791
      ],
      "type": "VEC3"
    },
    {
      "bufferView": 1,
      "byteOffset": 12093672,
      "componentType": 5126,
      "count": 5330,
      "max": [
        1,
        1,
        0.81400221586227417
      ],
      "min": [
        -1,
        -1,
        -0.82547646760940552
      ],
      "type": "VEC3"
    },
    {
      "bufferView": 0,
      "byteOffset": 5410716,
      "componentType": 5125,
      "count": 7512,
      "max": [
        5329
      ],
      "min": [
        0
      ],
      "type": "SCALAR"
    }
  ],
  "asset": {
    "extras": {
      "author": "Johnson Martin (https://sketchfab.com/Johnson-Martin)",
      "license": "CC-BY-4.0 (http://creativecommons.org/licenses/by/4.0/)",
      "source": "https://sketchfab.com/3d-models/eiffel-tower-6830e60d2c1048f2a33e92679664f652",
      "title": "Eiffel Tower"
    },
    "generator": "Sketchfab-8.69.0",
    "version": "2.0"
  },
  "bufferViews": [
    {
      "buffer": 0,
      "byteLength": 5440764,
      "byteOffset": 0,
      "name": "floatBufferViews",
      "target": 34963
    },
    {
      "buffer": 0,
      "byteLength": 12157632,
      "byteOffset": 5440764,
      "byteStride": 12,
      "name": "floatBufferViews",
      "target": 34962
    }
  ],
  "buffers": [
    {
      "byteLength": 17598396,
      "uri": "scene.bin"
    }
  ],
  "extensionsRequired": [
    "KHR_materials_pbrSpecularGlossiness"
  ],
  "extensionsUsed": [
    "KHR_materials_pbrSpecularGlossiness"
  ],
  "materials": [
    {
      "doubleSided": false,
      "emissiveFactor": [
        0,
        0,
        0
      ],
      "extensions": {
        "KHR_materials_pbrSpecularGlossiness": {
          "diffuseFactor": [
            1,
            1,
            1,
            1
          ],
          "glossinessFactor": 0.79999999701976776,
          "specularFactor": [
            0.80000001192092896,
            0.80000001192092896,
            0.80000001192092896
          ]
        }
      },
      "name": "Main"
    },
    {
      "doubleSided": false,
      "emissiveFactor": [
        0,
        0,
        0
      ],
      "extensions": {
        "KHR_materials_pbrSpecularGlossiness": {
          "diffuseFactor": [
            1,
            1,
            1,
            1
          ],
          "glossinessFactor": 0.70036146629456009,
          "specularFactor": [
            1,
            1,
            1
          ]
        }
      },
      "name": "Material.001"
    },
    {
      "alphaMode": "BLEND",
      "doubleSided": true,
      "emissiveFactor": [
        0,
        0,
        0
      ],
      "extensions": {
        "KHR_materials_pbrSpecularGlossiness": {
          "diffuseFactor": [
            1,
            1,
            1,
            0.51200002288818391
          ],
          "glossinessFactor": 1,
          "specularFactor": [
            0.80000001192092896,
            0.80000001192092896,
            0.80000001192092896
          ]
        }
      },
      "name": "Material.002"
    }
  ],
  "meshes": [
    {
      "name": "Eiffel-Tower_0",
      "primitives": [
        {
          "attributes": {
            "NORMAL": 1,
            "POSITION": 0
          },
          "indices": 2,
          "material": 0,
          "mode": 4
        }
      ]
    },
    {
      "name": "Eiffel-Tower_0",
      "primitives": [
        {
          "attributes": {
            "NORMAL": 4,
            "POSITION": 3
          },
          "indices": 5,
          "material": 0,
          "mode": 4
        }
      ]
    },
    {
      "name": "Eiffel-Tower_0",
      "primitives": [
        {
          "attributes": {
            "NORMAL": 7,
            "POSITION": 6
          },
          "indices": 8,
          "material": 0,
          "mode": 4
        }
      ]
    },
    {
      "name": "Eiffel-Tower_0",
      "primitives": [
        {
          "attributes": {
            "NORMAL": 10,
            "POSITION": 9
          },
          "indices": 11,
          "material": 0,
          "mode": 4
        }
      ]
    },
    {
      "name": "Eiffel-Tower_0",
      "primitives": [
        {
          "attributes": {
            "NORMAL": 13,
            "POSITION": 12
          },
          "indices": 14,
          "material": 0,
          "mode": 4
        }
      ]
    },
    {
      "name": "Eiffel-Tower_0",
      "primitives": [
        {
          "attributes": {
            "NORMAL": 16,
            "POSITION": 15
          },
          "indices": 17,
          "material": 0,
          "mode": 4
        }
      ]
    },
    {
      "name": "Eiffel-Tower_0",
      "primitives": [
        {
          "attributes": {
            "NORMAL": 19,
            "POSITION": 18
          },
          "indices": 20,
          "material": 0,
          "mode": 4
        }
      ]
    },
    {
      "name": "Eiffel-Tower_0",
      "primitives": [
        {
          "attributes": {
            "NORMAL": 22,
            "POSITION": 21
          },
          "indices": 23,
          "material": 0,
          "mode": 4
        }
      ]
    },
    {
      "name": "Eiffel-Tower_1",
      "primitives": [
        {
          "attributes": {
            "NORMAL": 25,
            "POSITION": 24
          },
          "indices": 26,
          "material": 1,
          "mode": 4
        }
      ]
    },
    {
      "name": "Eiffel-Tower_2",
      "primitives": [
        {
          "attributes": {
            "NORMAL": 28,
            "POSITION": 27
          },
          "indices": 29,
          "material": 2,
          "mode": 4
        }
      ]
    }
  ],
  "nodes": [
    {
      "children": [
        1
      ],
      "name": "RootNode (gltf orientation matrix)",
      "rotation": [
        -0.70710678118654746,
        -0,
        -0,
        0.70710678118654757
      ]
    },
    {
      "children": [
        2
      ],
      "name": "RootNode (model correction matrix)"
    },
    {
      "children": [
        3
      ],
      "name": "Root"
    },
    {
      "children": [
        4,
        5,
        6,
        7,
        8,
        9,
        10,
        11,
        12,
        13
      ],
      "matrix": [
        1,
        0,
        0,
        0,
        0,
        1,
        0,
        0,
        0,
        0,
        1,
        0,
        8.0000000000000034e-05,
        -2.0000000000000008e-05,
        0.30223,
        1
      ],
      "name": "Eiffel-Tower"
    },
    {
      "mesh": 0,
      "name": "Eiffel-Tower_0"
    },
    {
      "mesh": 1,
      "name": "Eiffel-Tower_0"
    },
    {
      "mesh": 2,
      "name": "Eiffel-Tower_0"
    },
    {
      "mesh": 3,
      "name": "Eiffel-Tower_0"
    },
    {
      "mesh": 4,
      "name": "Eiffel-Tower_0"
    },
    {
      "mesh": 5,
      "name": "Eiffel-Tower_0"
    },
    {
      "mesh": 6,
      "name": "Eiffel-Tower_0"
    },
    {
      "mesh": 7,
      "name": "Eiffel-Tower_0"
    },
    {
      "mesh": 8,
      "name": "Eiffel-Tower_1"
    },
    {
      "mesh": 9,
      "name": "Eiffel-Tower_2"
    }
  ],
  "scene": 0,
  "scenes": [
    {
      "name": "OSG_Scene",
      "nodes": [
        0
      ]
    }
  ]
}

